<svg width="366" height="109" viewBox="0 0 366 109" fill="none" xmlns="http://www.w3.org/2000/svg">
<path d="M7.88959 59.3333V44.3333H10.4732V41.3333H13.0568V38.3333H20.8076V41.3333H23.3912V44.3333H25.9748V59.3333H20.8076V53.3333H13.0568V59.3333H7.88959ZM13.0568 50.3333H20.8076V44.3333H18.224V41.3333H15.6404V44.3333H13.0568V50.3333Z" fill="black"/>
<path d="M31.142 59.3333V56.3333H36.3092V41.3333H33.7256V38.3333H41.4763V56.3333H46.6435V59.3333H31.142Z" fill="black"/>
<path d="M51.8107 59.3333V56.3333H49.2271V47.3333H51.8107V44.3333H67.3123V47.3333H54.3943V56.3333H67.3123V59.3333H51.8107Z" fill="black"/>
<path d="M69.8959 59.3333V38.3333H75.0631V44.3333H85.3975V47.3333H87.9811V59.3333H82.8139V47.3333H75.0631V59.3333H69.8959Z" fill="black"/>
<path d="M93.1483 59.3333V56.3333H90.5647V53.3333H93.1483V50.3333H103.483V47.3333H93.1483V44.3333H106.066V47.3333H108.65V59.3333H93.1483ZM95.7319 56.3333H103.483V53.3333H95.7319V56.3333Z" fill="black"/>
<path d="M111.233 59.3333V56.3333H113.817V53.3333H116.401V50.3333H118.984V47.3333H111.233V44.3333H129.319V47.3333H126.735V50.3333H124.151V53.3333H121.568V56.3333H129.319V59.3333H111.233Z" fill="black"/>
<path d="M134.486 59.3333V56.3333H131.902V53.3333H134.486V50.3333H144.82V47.3333H134.486V44.3333H147.404V47.3333H149.987V59.3333H134.486ZM137.069 56.3333H144.82V53.3333H137.069V56.3333Z" fill="black"/>
<path d="M160.322 47.3333H162.905V50.3333H160.322V59.3333H155.155V44.3333H160.322V47.3333ZM170.656 44.3333V47.3333H162.905V44.3333H170.656Z" fill="black"/>
<path d="M193.909 59.3333V38.3333H211.994V41.3333H199.076V47.3333H209.41V50.3333H199.076V56.3333H211.994V59.3333H193.909Z" fill="black"/>
<path d="M214.577 59.3333V44.3333H230.079V47.3333H232.662V59.3333H227.495V47.3333H224.912V59.3333H219.744V47.3333H217.161V59.3333H214.577Z" fill="black"/>
<path d="M235.246 62.3333V44.3333H250.748V47.3333H253.331V53.3333H250.748V56.3333H240.413V62.3333H235.246ZM240.413 53.3333H248.164V47.3333H240.413V53.3333Z" fill="black"/>
<path d="M258.498 59.3333V56.3333H255.915V47.3333H258.498V44.3333H271.416V47.3333H274V56.3333H271.416V59.3333H258.498ZM261.082 56.3333H268.833V47.3333H261.082V56.3333Z" fill="black"/>
<path d="M305.003 41.3333V38.3333H310.17V41.3333H305.003ZM299.836 59.3333V56.3333H305.003V47.3333H302.42V44.3333H310.17V56.3333H315.338V59.3333H299.836Z" fill="black"/>
<path d="M320.505 59.3333V56.3333H317.921V44.3333H323.088V56.3333H330.839V44.3333H336.006V59.3333H320.505Z" fill="black"/>
<path d="M338.59 59.3333V44.3333H354.091V47.3333H356.675V59.3333H351.508V47.3333H348.924V59.3333H343.757V47.3333H341.173V59.3333H338.59Z" fill="black"/>
<path d="M294.669 47.3333V44.3333H286.918V47.3333H294.669Z" fill="black"/>
<path d="M286.918 47.3333H284.334V44.3333H283.041H279.167V59.3333L283.43 59.3195C284.028 57.1035 284.334 54.8159 284.334 52.4624V50.3333H286.918V47.3333Z" fill="black"/>
<path d="M284.334 47.3333H286.918V44.3333H294.669V47.3333H286.918V50.3333H284.334V52.4624C284.334 54.8159 284.028 57.1035 283.43 59.3195C282.512 62.7214 280.905 65.9548 278.662 69C264.923 87.6508 227.97 95.2419 184.598 95.2419C145.244 95.2419 112.263 86.2896 96.956 69H76.807C94.0771 92.626 137.003 108 184.598 108C235.842 108 279.077 93.836 292.607 69C295.467 63.7495 297 58.2007 297 52.4624C297 43.7202 293.443 35.8476 287.053 29C269.41 10.092 230.172 1 184.598 1C145.276 1 110.977 8.58154 93.4452 28.3828C93.2846 28.5642 93.4452 28.4644 93.5 28.4289C115.05 14.4676 154.105 7.6828 184.598 7.6828C222.316 7.6828 255.178 14.4486 272.142 29C277.47 33.571 281.207 38.7129 283.041 44.3333H284.334V47.3333Z" fill="#FAFF00"/>
<path fill-rule="evenodd" clip-rule="evenodd" d="M1 29V69H76.807H96.956H278.662C280.905 65.9548 282.498 62.7214 283.43 59.3195L279.167 59.3333V44.3333H283.041C281.207 38.7129 277.47 33.571 272.142 29H93.1483H1ZM7.88959 44.3333V59.3333H13.0568V53.3333H20.8076V59.3333H25.9748V44.3333H23.3912V41.3333H20.8076V38.3333H13.0568V41.3333H10.4732V44.3333H7.88959ZM31.142 56.3333V59.3333H46.6435V56.3333H41.4763V38.3333H33.7256V41.3333H36.3092V56.3333H31.142ZM51.8107 56.3333V59.3333H67.3123V56.3333H54.3943V47.3333H67.3123V44.3333H51.8107V47.3333H49.2271V56.3333H51.8107ZM69.8959 38.3333V59.3333H75.0631V47.3333H82.8139V59.3333H87.9811V47.3333H85.3975V44.3333H75.0631V38.3333H69.8959ZM93.1483 56.3333V59.3333H108.65V47.3333H106.066V44.3333H93.1483V47.3333H103.483V50.3333H93.1483V53.3333H90.5647V56.3333H93.1483ZM111.233 56.3333V59.3333H129.319V56.3333H121.568V53.3333H124.151V50.3333H126.735V47.3333H129.319V44.3333H111.233V47.3333H118.984V50.3333H116.401V53.3333H113.817V56.3333H111.233ZM134.486 56.3333V59.3333H149.987V47.3333H147.404V44.3333H134.486V47.3333H144.82V50.3333H134.486V53.3333H131.902V56.3333H134.486ZM160.322 47.3333H162.905V44.3333H170.656V47.3333H162.905V50.3333H160.322V59.3333H155.155V44.3333H160.322V47.3333ZM193.909 38.3333V59.3333H211.994V56.3333H199.076V50.3333H209.41V47.3333H199.076V41.3333H211.994V38.3333H193.909ZM214.577 44.3333V59.3333H217.161V47.3333H219.744V59.3333H224.912V47.3333H227.495V59.3333H232.662V47.3333H230.079V44.3333H214.577ZM235.246 44.3333V62.3333H240.413V56.3333H250.748V53.3333H253.331V47.3333H250.748V44.3333H235.246ZM258.498 56.3333V59.3333H271.416V56.3333H274V47.3333H271.416V44.3333H258.498V47.3333H255.915V56.3333H258.498Z" fill="#D9D9D9"/>
<path fill-rule="evenodd" clip-rule="evenodd" d="M365 69V29H287.053C293.443 35.8476 297 43.7202 297 52.4624C297 58.2007 295.467 63.7495 292.607 69H365ZM305.003 38.3333V41.3333H310.17V38.3333H305.003ZM299.836 56.3333V59.3333H315.338V56.3333H310.17V44.3333H302.42V47.3333H305.003V56.3333H299.836ZM320.505 56.3333V59.3333H336.006V44.3333H330.839V56.3333H323.088V44.3333H317.921V56.3333H320.505ZM338.59 44.3333V59.3333H341.173V47.3333H343.757V59.3333H348.924V47.3333H351.508V59.3333H356.675V47.3333H354.091V44.3333H338.59Z" fill="#D9D9D9"/>
<path d="M240.413 53.3333H248.164V47.3333H240.413V53.3333Z" fill="#D9D9D9"/>
<path d="M261.082 56.3333H268.833V47.3333H261.082V56.3333Z" fill="#D9D9D9"/>
<path d="M137.069 56.3333H144.82V53.3333H137.069V56.3333Z" fill="#D9D9D9"/>
<path d="M95.7319 56.3333H103.483V53.3333H95.7319V56.3333Z" fill="#D9D9D9"/>
<path d="M13.0568 50.3333H20.8076V44.3333H18.224V41.3333H15.6404V44.3333H13.0568V50.3333Z" fill="#D9D9D9"/>
<path d="M162.905 47.3333H160.322V44.3333H155.155V59.3333H160.322V50.3333H162.905V47.3333ZM162.905 47.3333H170.656V44.3333H162.905V47.3333ZM286.918 47.3333H284.334V44.3333H283.041M286.918 47.3333V50.3333H284.334V52.4624C284.334 54.8159 284.028 57.1035 283.43 59.3195M286.918 47.3333H294.669V44.3333H286.918V47.3333ZM272.142 29C255.178 14.4486 222.316 7.6828 184.598 7.6828C154.105 7.6828 115.05 14.4676 93.5 28.4289C93.4452 28.4644 93.2846 28.5642 93.4452 28.3828C110.977 8.58154 145.276 1 184.598 1C230.172 1 269.41 10.092 287.053 29M272.142 29C277.47 33.571 281.207 38.7129 283.041 44.3333M272.142 29H93.1483H1V69H76.807M278.662 69C264.923 87.6508 227.97 95.2419 184.598 95.2419C145.244 95.2419 112.263 86.2896 96.956 69M278.662 69C280.905 65.9548 282.498 62.7214 283.43 59.3195M278.662 69H96.956M278.662 69C280.905 65.9548 282.512 62.7214 283.43 59.3195M292.607 69H365V29H287.053M292.607 69C295.467 63.7495 297 58.2007 297 52.4624C297 43.7202 293.443 35.8476 287.053 29M292.607 69C279.077 93.836 235.842 108 184.598 108C137.003 108 94.0771 92.626 76.807 69M283.43 59.3195L279.167 59.3333V44.3333H283.041M96.956 69H76.807M7.88959 59.3333V44.3333H10.4732V41.3333H13.0568V38.3333H20.8076V41.3333H23.3912V44.3333H25.9748V59.3333H20.8076V53.3333H13.0568V59.3333H7.88959ZM13.0568 50.3333H20.8076V44.3333H18.224V41.3333H15.6404V44.3333H13.0568V50.3333ZM31.142 59.3333V56.3333H36.3092V41.3333H33.7256V38.3333H41.4763V56.3333H46.6435V59.3333H31.142ZM51.8107 59.3333V56.3333H49.2271V47.3333H51.8107V44.3333H67.3123V47.3333H54.3943V56.3333H67.3123V59.3333H51.8107ZM69.8959 59.3333V38.3333H75.0631V44.3333H85.3975V47.3333H87.9811V59.3333H82.8139V47.3333H75.0631V59.3333H69.8959ZM93.1483 59.3333V56.3333H90.5647V53.3333H93.1483V50.3333H103.483V47.3333H93.1483V44.3333H106.066V47.3333H108.65V59.3333H93.1483ZM95.7319 56.3333H103.483V53.3333H95.7319V56.3333ZM111.233 59.3333V56.3333H113.817V53.3333H116.401V50.3333H118.984V47.3333H111.233V44.3333H129.319V47.3333H126.735V50.3333H124.151V53.3333H121.568V56.3333H129.319V59.3333H111.233ZM134.486 59.3333V56.3333H131.902V53.3333H134.486V50.3333H144.82V47.3333H134.486V44.3333H147.404V47.3333H149.987V59.3333H134.486ZM137.069 56.3333H144.82V53.3333H137.069V56.3333ZM193.909 59.3333V38.3333H211.994V41.3333H199.076V47.3333H209.41V50.3333H199.076V56.3333H211.994V59.3333H193.909ZM214.577 59.3333V44.3333H230.079V47.3333H232.662V59.3333H227.495V47.3333H224.912V59.3333H219.744V47.3333H217.161V59.3333H214.577ZM235.246 62.3333V44.3333H250.748V47.3333H253.331V53.3333H250.748V56.3333H240.413V62.3333H235.246ZM240.413 53.3333H248.164V47.3333H240.413V53.3333ZM258.498 59.3333V56.3333H255.915V47.3333H258.498V44.3333H271.416V47.3333H274V56.3333H271.416V59.3333H258.498ZM261.082 56.3333H268.833V47.3333H261.082V56.3333ZM305.003 41.3333V38.3333H310.17V41.3333H305.003ZM299.836 59.3333V56.3333H305.003V47.3333H302.42V44.3333H310.17V56.3333H315.338V59.3333H299.836ZM320.505 59.3333V56.3333H317.921V44.3333H323.088V56.3333H330.839V44.3333H336.006V59.3333H320.505ZM338.59 59.3333V44.3333H354.091V47.3333H356.675V59.3333H351.508V47.3333H348.924V59.3333H343.757V47.3333H341.173V59.3333H338.59Z" stroke="black" stroke-width="0.4"/>
</svg>
